<svg width="25" height="25" viewBox="0 0 25 25" fill="none" xmlns="http://www.w3.org/2000/svg">
<path d="M20.25 4H5.25C4.65326 4 4.08097 4.23705 3.65901 4.65901C3.23705 5.08097 3 5.65326 3 6.25V16.75C3 17.3467 3.23705 17.919 3.65901 18.341C4.08097 18.7629 4.65326 19 5.25 19H12V20.5H9.75C9.55109 20.5 9.36032 20.579 9.21967 20.7197C9.07902 20.8603 9 21.0511 9 21.25C9 21.4489 9.07902 21.6397 9.21967 21.7803C9.36032 21.921 9.55109 22 9.75 22H15.75C15.9489 22 16.1397 21.921 16.2803 21.7803C16.421 21.6397 16.5 21.4489 16.5 21.25C16.5 21.0511 16.421 20.8603 16.2803 20.7197C16.1397 20.579 15.9489 20.5 15.75 20.5H13.5V19H20.25C20.8467 19 21.419 18.7629 21.841 18.341C22.2629 17.919 22.5 17.3467 22.5 16.75V6.25C22.5 5.65326 22.2629 5.08097 21.841 4.65901C21.419 4.23705 20.8467 4 20.25 4ZM20.25 17.5H5.25C5.05109 17.5 4.86032 17.421 4.71967 17.2803C4.57902 17.1397 4.5 16.9489 4.5 16.75V15.25H21V16.75C21 16.9489 20.921 17.1397 20.7803 17.2803C20.6397 17.421 20.4489 17.5 20.25 17.5Z" fill="#2AF76E"/>
</svg>
