<svg width="25" height="25" viewBox="0 0 25 25" fill="none" xmlns="http://www.w3.org/2000/svg">
<path d="M9.495 3.20561C9.43452 3.16819 9.38592 3.11434 9.35488 3.05035C9.32384 2.98636 9.31163 2.91486 9.31969 2.8442C9.32775 2.77353 9.35574 2.70662 9.40039 2.65126C9.44504 2.5959 9.50452 2.55438 9.57188 2.53154C10.9397 2.06025 12.3953 1.89944 13.833 2.06079C15.2707 2.22214 16.6544 2.7016 17.8838 3.46436C17.9283 3.49244 17.9664 3.5296 17.9957 3.5734C18.0249 3.61721 18.0446 3.66668 18.0534 3.71859C18.0623 3.77051 18.0601 3.8237 18.047 3.87472C18.0339 3.92573 18.0102 3.97341 17.9775 4.01467C16.892 5.40177 15.5608 6.57755 14.0503 7.48342C12.8301 5.76991 11.2817 4.31584 9.495 3.20561ZM12.7116 8.18748C11.3423 6.31914 9.54099 4.81019 7.46156 3.78967C7.40202 3.76075 7.3358 3.74836 7.26983 3.75381C7.20386 3.75925 7.14056 3.78232 7.08656 3.82061C5.40317 5.02473 4.14478 6.73147 3.49219 8.69561C3.47579 8.74583 3.47019 8.79895 3.47576 8.85149C3.48133 8.90402 3.49793 8.95479 3.52448 9.00046C3.55104 9.04614 3.58694 9.08568 3.62985 9.11651C3.67275 9.14734 3.72168 9.16876 3.77344 9.17936C4.75196 9.39028 5.74994 9.49775 6.75094 9.49998C8.80961 9.5011 10.8438 9.05319 12.7116 8.18748ZM22.4428 10.6897C22.2044 8.51516 21.2404 6.48438 19.7063 4.92498C19.6688 4.88698 19.6238 4.8574 19.574 4.8382C19.5243 4.819 19.471 4.81063 19.4178 4.81365C19.3646 4.81667 19.3126 4.831 19.2653 4.85569C19.2181 4.88039 19.1766 4.91488 19.1438 4.95686C17.9572 6.46846 16.5058 7.75182 14.8603 8.74436C15.3744 9.63495 15.7999 10.5738 16.1306 11.5475C17.4738 11.1834 18.8593 10.9993 20.2509 11C20.8461 11 21.4408 11.0335 22.0322 11.1003C22.0872 11.1058 22.1428 11.099 22.1949 11.0805C22.247 11.062 22.2944 11.0322 22.3337 10.9932C22.3729 10.9542 22.4031 10.9071 22.4219 10.8551C22.4408 10.8031 22.4479 10.7476 22.4428 10.6925V10.6897ZM16.545 12.9865C16.8229 14.1686 16.9629 15.3788 16.9622 16.5931C16.9616 17.7554 16.8324 18.914 16.5769 20.0478C16.5605 20.1172 16.5644 20.1899 16.5879 20.2573C16.6114 20.3246 16.6536 20.3839 16.7096 20.4281C16.7656 20.4722 16.8331 20.4995 16.904 20.5068C16.975 20.514 17.0466 20.5008 17.1103 20.4687C18.5322 19.7554 19.7585 18.7059 20.6827 17.4111C21.6069 16.1163 22.2012 14.6156 22.4138 13.039C22.4202 12.9899 22.4168 12.9399 22.4038 12.8921C22.3908 12.8442 22.3684 12.7994 22.338 12.7603C22.3076 12.7212 22.2697 12.6884 22.2265 12.664C22.1834 12.6396 22.1358 12.624 22.0866 12.6181C20.2326 12.3795 18.3499 12.5069 16.545 12.9931V12.9865ZM14.7038 12.0069C14.4015 11.1204 14.0124 10.2659 13.5422 9.45592C11.4231 10.474 9.10191 11.0017 6.75094 11C5.652 11 4.55606 10.8854 3.48094 10.6578C3.42907 10.6468 3.37546 10.647 3.32367 10.6583C3.27187 10.6696 3.22305 10.6918 3.18044 10.7233C3.13783 10.7548 3.10239 10.795 3.07646 10.8413C3.05052 10.8875 3.03469 10.9387 3.03 10.9915C3.01063 11.2415 3.00063 11.4944 3 11.75C2.99951 13.085 3.27394 14.4059 3.8062 15.6303C4.33847 16.8546 5.11715 17.9563 6.09375 18.8665C6.13495 18.9043 6.18406 18.9324 6.23749 18.9487C6.29093 18.965 6.34734 18.9692 6.40261 18.961C6.45787 18.9527 6.51059 18.9322 6.55691 18.9009C6.60323 18.8697 6.64197 18.8285 6.67031 18.7803C8.50014 15.6754 11.3338 13.2872 14.7038 12.0097V12.0069ZM7.84688 19.7422C7.82223 19.7852 7.80637 19.8327 7.8002 19.8819C7.79402 19.9311 7.79767 19.981 7.81092 20.0288C7.82417 20.0766 7.84677 20.1212 7.8774 20.1602C7.90803 20.1992 7.94609 20.2317 7.98938 20.2559C9.94999 21.3552 12.2305 21.7424 14.4441 21.3519C14.5099 21.3404 14.5714 21.3112 14.6219 21.2674C14.6725 21.2236 14.7102 21.167 14.7309 21.1034C15.2145 19.6498 15.4614 18.1279 15.4622 16.5959C15.4624 15.5405 15.3448 14.4884 15.1116 13.459C12.0397 14.6559 9.47407 16.8749 7.84688 19.7422Z" fill="#2AF76E"/>
</svg>
