<svg width="24" height="24" viewBox="0 0 24 24" fill="none" xmlns="http://www.w3.org/2000/svg">
<path d="M22.25 9.50001V10.25C22.2484 11.519 21.7877 12.7446 20.953 13.7004C20.1183 14.6563 18.966 15.2778 17.7087 15.4503C18.2219 16.107 18.5005 16.9166 18.5 17.75V21.5C18.5 21.6989 18.421 21.8897 18.2803 22.0303C18.1397 22.171 17.9489 22.25 17.75 22.25H11.75C11.5511 22.25 11.3603 22.171 11.2197 22.0303C11.079 21.8897 11 21.6989 11 21.5V20H8.75C7.75544 20 6.80161 19.6049 6.09835 18.9017C5.39509 18.1984 5 17.2446 5 16.25C5 15.6533 4.76295 15.081 4.34099 14.659C3.91903 14.2371 3.34674 14 2.75 14C2.55109 14 2.36032 13.921 2.21967 13.7803C2.07902 13.6397 2 13.4489 2 13.25C2 13.0511 2.07902 12.8603 2.21967 12.7197C2.36032 12.579 2.55109 12.5 2.75 12.5C3.24246 12.5 3.73009 12.597 4.18506 12.7855C4.64003 12.9739 5.05343 13.2501 5.40165 13.5984C5.74987 13.9466 6.02609 14.36 6.21455 14.8149C6.403 15.2699 6.5 15.7576 6.5 16.25C6.5 16.8467 6.73705 17.419 7.15901 17.841C7.58097 18.263 8.15326 18.5 8.75 18.5H11V17.75C10.9995 16.9166 11.2781 16.107 11.7913 15.4503C10.534 15.2778 9.38166 14.6563 8.54696 13.7004C7.71225 12.7446 7.25158 11.519 7.25 10.25V9.50001C7.25934 8.56793 7.50756 7.65381 7.97094 6.84501C7.74169 6.10551 7.66816 5.32653 7.75497 4.55719C7.84177 3.78785 8.08704 3.04484 8.47531 2.37501C8.54115 2.26097 8.63586 2.16628 8.7499 2.10045C8.86395 2.03462 8.99332 1.99998 9.125 2.00001C9.99857 1.99818 10.8605 2.2007 11.6418 2.59137C12.4232 2.98205 13.1023 3.55006 13.625 4.25001H15.875C16.3977 3.55006 17.0768 2.98205 17.8582 2.59137C18.6395 2.2007 19.5014 1.99818 20.375 2.00001C20.5067 1.99998 20.636 2.03462 20.7501 2.10045C20.8641 2.16628 20.9588 2.26097 21.0247 2.37501C21.413 3.04482 21.6582 3.78787 21.7449 4.55725C21.8315 5.32662 21.7577 6.10561 21.5281 6.84501C21.9924 7.65349 22.241 8.56776 22.25 9.50001Z" fill="#2AF76E"/>
</svg>
