<svg width="25" height="25" viewBox="0 0 25 25" fill="none" xmlns="http://www.w3.org/2000/svg">
<path d="M17.25 2H8.25C6.85807 2.00149 5.52358 2.55509 4.53933 3.53933C3.55509 4.52358 3.00149 5.85807 3 7.25V16.25C3.00149 17.6419 3.55509 18.9764 4.53933 19.9607C5.52358 20.9449 6.85807 21.4985 8.25 21.5H17.25C18.6419 21.4985 19.9764 20.9449 20.9607 19.9607C21.9449 18.9764 22.4985 17.6419 22.5 16.25V7.25C22.4985 5.85807 21.9449 4.52358 20.9607 3.53933C19.9764 2.55509 18.6419 2.00149 17.25 2ZM12.75 16.25C11.86 16.25 10.99 15.9861 10.2499 15.4916C9.50991 14.9971 8.93314 14.2943 8.59254 13.4721C8.25195 12.6498 8.16283 11.745 8.33647 10.8721C8.5101 9.99918 8.93868 9.19736 9.56802 8.56802C10.1974 7.93868 10.9992 7.5101 11.8721 7.33647C12.745 7.16283 13.6498 7.25195 14.4721 7.59254C15.2943 7.93314 15.9971 8.50991 16.4916 9.24993C16.9861 9.98995 17.25 10.86 17.25 11.75C17.2488 12.9431 16.7743 14.087 15.9306 14.9306C15.087 15.7743 13.9431 16.2488 12.75 16.25ZM18.375 7.25C18.1525 7.25 17.935 7.18402 17.75 7.0604C17.565 6.93679 17.4208 6.76109 17.3356 6.55552C17.2505 6.34995 17.2282 6.12375 17.2716 5.90552C17.315 5.68729 17.4222 5.48684 17.5795 5.3295C17.7368 5.17217 17.9373 5.06502 18.1555 5.02162C18.3738 4.97821 18.6 5.00049 18.8055 5.08564C19.0111 5.17078 19.1868 5.31498 19.3104 5.49998C19.434 5.68499 19.5 5.9025 19.5 6.125C19.5 6.42337 19.3815 6.70952 19.1705 6.9205C18.9595 7.13147 18.6734 7.25 18.375 7.25ZM15.75 11.75C15.75 12.3433 15.5741 12.9234 15.2444 13.4167C14.9148 13.9101 14.4462 14.2946 13.898 14.5216C13.3499 14.7487 12.7467 14.8081 12.1647 14.6924C11.5828 14.5766 11.0482 14.2909 10.6287 13.8713C10.2091 13.4518 9.9234 12.9172 9.80764 12.3353C9.69189 11.7533 9.7513 11.1501 9.97836 10.6019C10.2054 10.0538 10.5899 9.58524 11.0833 9.25559C11.5766 8.92595 12.1567 8.75 12.75 8.75C13.5456 8.75 14.3087 9.06607 14.8713 9.62868C15.4339 10.1913 15.75 10.9544 15.75 11.75Z" fill="#2AF76E"/>
</svg>
