<svg width="25" height="25" viewBox="0 0 25 25" fill="none" xmlns="http://www.w3.org/2000/svg">
<path d="M20 3H3.5C3.10218 3 2.72064 3.15804 2.43934 3.43934C2.15804 3.72064 2 4.10218 2 4.5V21C2 21.3978 2.15804 21.7794 2.43934 22.0607C2.72064 22.342 3.10218 22.5 3.5 22.5H20C20.3978 22.5 20.7794 22.342 21.0607 22.0607C21.342 21.7794 21.5 21.3978 21.5 21V4.5C21.5 4.10218 21.342 3.72064 21.0607 3.43934C20.7794 3.15804 20.3978 3 20 3ZM8.75 17.25C8.75 17.4489 8.67098 17.6397 8.53033 17.7803C8.38968 17.921 8.19891 18 8 18C7.80109 18 7.61032 17.921 7.46967 17.7803C7.32902 17.6397 7.25 17.4489 7.25 17.25V11.25C7.25 11.0511 7.32902 10.8603 7.46967 10.7197C7.61032 10.579 7.80109 10.5 8 10.5C8.19891 10.5 8.38968 10.579 8.53033 10.7197C8.67098 10.8603 8.75 11.0511 8.75 11.25V17.25ZM8 9.75C7.7775 9.75 7.55999 9.68402 7.37498 9.5604C7.18998 9.43679 7.04578 9.26109 6.96064 9.05552C6.87549 8.84995 6.85321 8.62375 6.89662 8.40552C6.94002 8.18729 7.04717 7.98684 7.2045 7.8295C7.36184 7.67217 7.56229 7.56502 7.78052 7.52162C7.99875 7.47821 8.22495 7.50049 8.43052 7.58564C8.63609 7.67078 8.81179 7.81498 8.9354 7.99998C9.05902 8.18499 9.125 8.4025 9.125 8.625C9.125 8.92337 9.00647 9.20952 8.7955 9.4205C8.58452 9.63147 8.29837 9.75 8 9.75ZM17 17.25C17 17.4489 16.921 17.6397 16.7803 17.7803C16.6397 17.921 16.4489 18 16.25 18C16.0511 18 15.8603 17.921 15.7197 17.7803C15.579 17.6397 15.5 17.4489 15.5 17.25V13.875C15.5 13.3777 15.3025 12.9008 14.9508 12.5492C14.5992 12.1975 14.1223 12 13.625 12C13.1277 12 12.6508 12.1975 12.2992 12.5492C11.9475 12.9008 11.75 13.3777 11.75 13.875V17.25C11.75 17.4489 11.671 17.6397 11.5303 17.7803C11.3897 17.921 11.1989 18 11 18C10.8011 18 10.6103 17.921 10.4697 17.7803C10.329 17.6397 10.25 17.4489 10.25 17.25V11.25C10.2509 11.0663 10.3193 10.8893 10.442 10.7526C10.5648 10.616 10.7334 10.5291 10.916 10.5085C11.0985 10.4879 11.2823 10.5351 11.4324 10.641C11.5825 10.7469 11.6885 10.9042 11.7303 11.0831C12.2377 10.7389 12.8292 10.5395 13.4414 10.5061C14.0536 10.4728 14.6633 10.6068 15.205 10.8938C15.7468 11.1808 16.2001 11.61 16.5164 12.1352C16.8326 12.6605 16.9998 13.2619 17 13.875V17.25Z" fill="#2AF76E"/>
</svg>
