<svg width="25" height="25" viewBox="0 0 25 25" fill="none" xmlns="http://www.w3.org/2000/svg">
<path d="M20.2855 2.6817H3.78552C3.3877 2.6817 3.00617 2.83974 2.72486 3.12104C2.44356 3.40235 2.28552 3.78388 2.28552 4.1817V20.6817C2.28552 21.0795 2.44356 21.4611 2.72486 21.7424C3.00617 22.0237 3.3877 22.1817 3.78552 22.1817H20.2855C20.6833 22.1817 21.0649 22.0237 21.3462 21.7424C21.6275 21.4611 21.7855 21.0795 21.7855 20.6817V4.1817C21.7855 3.78388 21.6275 3.40235 21.3462 3.12104C21.0649 2.83974 20.6833 2.6817 20.2855 2.6817ZM9.03552 16.9317C9.03552 17.1306 8.9565 17.3214 8.81585 17.462C8.6752 17.6027 8.48443 17.6817 8.28552 17.6817C8.08661 17.6817 7.89584 17.6027 7.75519 17.462C7.61454 17.3214 7.53552 17.1306 7.53552 16.9317V10.9317C7.53552 10.7328 7.61454 10.542 7.75519 10.4014C7.89584 10.2607 8.08661 10.1817 8.28552 10.1817C8.48443 10.1817 8.6752 10.2607 8.81585 10.4014C8.9565 10.542 9.03552 10.7328 9.03552 10.9317V16.9317ZM8.28552 9.4317C8.06302 9.4317 7.84551 9.36572 7.66051 9.24211C7.4755 9.11849 7.33131 8.94279 7.24616 8.73722C7.16101 8.53165 7.13873 8.30545 7.18214 8.08722C7.22555 7.869 7.33269 7.66854 7.49003 7.51121C7.64736 7.35387 7.84782 7.24673 8.06605 7.20332C8.28427 7.15991 8.51047 7.18219 8.71604 7.26734C8.92161 7.35249 9.09731 7.49668 9.22093 7.68169C9.34454 7.86669 9.41052 8.0842 9.41052 8.3067C9.41052 8.60507 9.292 8.89122 9.08102 9.1022C8.87004 9.31318 8.58389 9.4317 8.28552 9.4317ZM17.2855 16.9317C17.2855 17.1306 17.2065 17.3214 17.0659 17.462C16.9252 17.6027 16.7344 17.6817 16.5355 17.6817C16.3366 17.6817 16.1458 17.6027 16.0052 17.462C15.8645 17.3214 15.7855 17.1306 15.7855 16.9317V13.5567C15.7855 13.0594 15.588 12.5825 15.2363 12.2309C14.8847 11.8792 14.4078 11.6817 13.9105 11.6817C13.4132 11.6817 12.9363 11.8792 12.5847 12.2309C12.2331 12.5825 12.0355 13.0594 12.0355 13.5567V16.9317C12.0355 17.1306 11.9565 17.3214 11.8159 17.462C11.6752 17.6027 11.4844 17.6817 11.2855 17.6817C11.0866 17.6817 10.8958 17.6027 10.7552 17.462C10.6145 17.3214 10.5355 17.1306 10.5355 16.9317V10.9317C10.5365 10.748 10.6048 10.571 10.7275 10.4343C10.8503 10.2977 11.0189 10.2108 11.2015 10.1902C11.3841 10.1696 11.5678 10.2168 11.7179 10.3227C11.868 10.4286 11.974 10.5859 12.0158 10.7648C12.5232 10.4206 13.1147 10.2212 13.7269 10.1878C14.3391 10.1545 14.9488 10.2885 15.4905 10.5755C16.0323 10.8625 16.4856 11.2917 16.8019 11.8169C17.1181 12.3422 17.2853 12.9436 17.2855 13.5567V16.9317Z" fill="#2AF76E"/>
</svg>
