<svg width="24" height="24" viewBox="0 0 24 24" fill="none" xmlns="http://www.w3.org/2000/svg">
<path d="M11.625 16.4063C11.7383 16.471 11.8666 16.5051 11.9972 16.5051C12.1277 16.5051 12.256 16.471 12.3694 16.4063C12.5991 16.2741 17.9944 13.125 17.9944 7.50469C17.9472 5.94591 17.2951 4.46672 16.176 3.38056C15.0569 2.29441 13.559 1.68663 11.9995 1.68602C10.44 1.68541 8.94151 2.29202 7.8216 3.3773C6.7017 4.46258 6.04835 5.94126 6 7.5C6 13.125 11.3981 16.2694 11.625 16.4063ZM12 5.25C12.445 5.25 12.88 5.38196 13.25 5.62919C13.62 5.87643 13.9084 6.22783 14.0787 6.63896C14.249 7.0501 14.2936 7.5025 14.2068 7.93895C14.12 8.37541 13.9057 8.77632 13.591 9.09099C13.2763 9.40566 12.8754 9.61995 12.439 9.70677C12.0025 9.79359 11.5501 9.74903 11.139 9.57873C10.7278 9.40843 10.3764 9.12004 10.1292 8.75003C9.88196 8.38002 9.75 7.94501 9.75 7.5C9.75 6.90326 9.98705 6.33097 10.409 5.90901C10.831 5.48705 11.4033 5.25 12 5.25ZM22.5 17.25C22.5 20.1731 17.0897 21.75 12 21.75C6.91031 21.75 1.5 20.1731 1.5 17.25C1.5 15.8822 2.73937 14.6709 4.99031 13.8403C5.1749 13.7793 5.37596 13.7924 5.5511 13.8768C5.72624 13.9612 5.86178 14.1102 5.92913 14.2926C5.99648 14.475 5.99039 14.6764 5.91215 14.8543C5.8339 15.0323 5.6896 15.1729 5.50969 15.2466C3.96188 15.8194 3 16.5863 3 17.25C3 18.5025 6.42375 20.25 12 20.25C17.5762 20.25 21 18.5025 21 17.25C21 16.5863 20.0381 15.8194 18.4903 15.2475C18.3104 15.1739 18.1661 15.0332 18.0879 14.8553C18.0096 14.6773 18.0035 14.4759 18.0709 14.2935C18.1382 14.1112 18.2738 13.9621 18.4489 13.8777C18.624 13.7933 18.8251 13.7803 19.0097 13.8413C21.2606 14.6709 22.5 15.8822 22.5 17.25Z" fill="#2AF76E"/>
</svg>
