<svg width="25" height="25" viewBox="0 0 25 25" fill="none" xmlns="http://www.w3.org/2000/svg">
<path d="M21.4066 20.6109C21.342 20.7286 21.2471 20.8267 21.1317 20.8951C21.0162 20.9636 20.8846 20.9998 20.7504 21H16.2504C16.1241 21 16 20.9681 15.8893 20.9073C15.7787 20.8465 15.6852 20.7587 15.6176 20.6522L11.8216 14.6869L6.30536 20.7544C6.17089 20.8988 5.9849 20.9845 5.78772 20.9927C5.59054 21.0009 5.39805 20.9311 5.252 20.7984C5.10595 20.6657 5.0181 20.4807 5.0075 20.2836C4.99689 20.0866 5.06439 19.8933 5.19536 19.7456L10.9863 13.3706L5.11755 4.15313C5.04527 4.03973 5.00481 3.90898 5.0004 3.77458C4.996 3.64018 5.0278 3.50707 5.0925 3.38918C5.15719 3.27129 5.2524 3.17296 5.36813 3.10449C5.48387 3.03603 5.61589 2.99993 5.75036 3H10.2504C10.3766 3.00004 10.5008 3.03194 10.6114 3.09274C10.722 3.15353 10.8155 3.24127 10.8832 3.34781L14.6791 9.31312L20.1954 3.24562C20.3298 3.10117 20.5158 3.01555 20.713 3.00731C20.9102 2.99907 21.1027 3.06888 21.2487 3.20161C21.3948 3.33435 21.4826 3.51929 21.4932 3.71636C21.5038 3.91343 21.4363 4.10674 21.3054 4.25438L15.5144 10.6247L21.3832 19.8478C21.4551 19.9613 21.4951 20.0919 21.4993 20.2262C21.5034 20.3604 21.4714 20.4933 21.4066 20.6109Z" fill="#2AF76E"/>
</svg>
